<mxfile host="app.diagrams.net" modified="2023-12-22T03:24:06.026Z" agent="Mozilla/5.0 (X11; Linux x86_64; rv:109.0) Gecko/20100101 Firefox/117.0" etag="xKoi56mBl8Q8jxWfz27s" version="22.1.11" type="github">
  <diagram name="Page-1" id="NlNqatFiH7avr2eCyBF8">
    <mxGraphModel dx="1434" dy="764" grid="1" gridSize="10" guides="1" tooltips="1" connect="1" arrows="1" fold="1" page="1" pageScale="1" pageWidth="850" pageHeight="1100" math="0" shadow="0">
      <root>
        <mxCell id="0" />
        <mxCell id="1" parent="0" />
        <mxCell id="SxAL0rWBXSr9IIWfnXTL-1" style="edgeStyle=orthogonalEdgeStyle;rounded=0;orthogonalLoop=1;jettySize=auto;html=1;entryX=0.5;entryY=0;entryDx=0;entryDy=0;startArrow=classic;startFill=1;" edge="1" parent="1" source="SxAL0rWBXSr9IIWfnXTL-2" target="SxAL0rWBXSr9IIWfnXTL-10">
          <mxGeometry relative="1" as="geometry" />
        </mxCell>
        <mxCell id="SxAL0rWBXSr9IIWfnXTL-2" value="&lt;font style=&quot;font-size: 30px;&quot;&gt;Airflow&lt;/font&gt;" style="rounded=0;whiteSpace=wrap;html=1;fillColor=#d5e8d4;strokeColor=#82b366;" vertex="1" parent="1">
          <mxGeometry x="320" y="110" width="240" height="200" as="geometry" />
        </mxCell>
        <mxCell id="SxAL0rWBXSr9IIWfnXTL-3" style="edgeStyle=orthogonalEdgeStyle;rounded=0;orthogonalLoop=1;jettySize=auto;html=1;entryX=0;entryY=0.5;entryDx=0;entryDy=0;" edge="1" parent="1" source="SxAL0rWBXSr9IIWfnXTL-4" target="SxAL0rWBXSr9IIWfnXTL-10">
          <mxGeometry relative="1" as="geometry">
            <Array as="points">
              <mxPoint x="40" y="160" />
              <mxPoint x="40" y="440" />
            </Array>
          </mxGeometry>
        </mxCell>
        <mxCell id="SxAL0rWBXSr9IIWfnXTL-4" value="&lt;font style=&quot;font-size: 20px;&quot;&gt;Polygon IO&lt;/font&gt;" style="rounded=0;whiteSpace=wrap;html=1;fillColor=#dae8fc;strokeColor=#6c8ebf;" vertex="1" parent="1">
          <mxGeometry x="80" y="120" width="160" height="80" as="geometry" />
        </mxCell>
        <mxCell id="SxAL0rWBXSr9IIWfnXTL-5" style="edgeStyle=orthogonalEdgeStyle;rounded=0;orthogonalLoop=1;jettySize=auto;html=1;entryX=0;entryY=0.75;entryDx=0;entryDy=0;endArrow=none;endFill=0;startArrow=classic;startFill=1;" edge="1" parent="1" source="SxAL0rWBXSr9IIWfnXTL-7" target="SxAL0rWBXSr9IIWfnXTL-2">
          <mxGeometry relative="1" as="geometry" />
        </mxCell>
        <mxCell id="SxAL0rWBXSr9IIWfnXTL-6" style="edgeStyle=orthogonalEdgeStyle;rounded=0;orthogonalLoop=1;jettySize=auto;html=1;endArrow=oval;endFill=1;" edge="1" parent="1" source="SxAL0rWBXSr9IIWfnXTL-7">
          <mxGeometry relative="1" as="geometry">
            <mxPoint x="40" y="259.9999999999999" as="targetPoint" />
          </mxGeometry>
        </mxCell>
        <mxCell id="SxAL0rWBXSr9IIWfnXTL-7" value="&lt;font style=&quot;font-size: 20px;&quot;&gt;Alternative API&lt;/font&gt;" style="rounded=0;whiteSpace=wrap;html=1;fillColor=#f8cecc;strokeColor=#b85450;" vertex="1" parent="1">
          <mxGeometry x="80" y="220" width="160" height="80" as="geometry" />
        </mxCell>
        <mxCell id="SxAL0rWBXSr9IIWfnXTL-8" style="edgeStyle=orthogonalEdgeStyle;rounded=0;orthogonalLoop=1;jettySize=auto;html=1;entryX=0;entryY=0.25;entryDx=0;entryDy=0;startArrow=classic;startFill=1;endArrow=none;endFill=0;" edge="1" parent="1" source="SxAL0rWBXSr9IIWfnXTL-4" target="SxAL0rWBXSr9IIWfnXTL-2">
          <mxGeometry relative="1" as="geometry" />
        </mxCell>
        <mxCell id="SxAL0rWBXSr9IIWfnXTL-9" style="edgeStyle=orthogonalEdgeStyle;rounded=0;orthogonalLoop=1;jettySize=auto;html=1;entryX=0.5;entryY=1;entryDx=0;entryDy=0;" edge="1" parent="1" source="SxAL0rWBXSr9IIWfnXTL-10" target="SxAL0rWBXSr9IIWfnXTL-12">
          <mxGeometry relative="1" as="geometry">
            <Array as="points">
              <mxPoint x="720" y="440" />
            </Array>
          </mxGeometry>
        </mxCell>
        <mxCell id="SxAL0rWBXSr9IIWfnXTL-10" value="&lt;font style=&quot;font-size: 30px;&quot;&gt;PostgreSQL&lt;/font&gt;" style="rounded=0;whiteSpace=wrap;html=1;fillColor=#e1d5e7;strokeColor=#9673a6;" vertex="1" parent="1">
          <mxGeometry x="220" y="400" width="440" height="80" as="geometry" />
        </mxCell>
        <mxCell id="SxAL0rWBXSr9IIWfnXTL-11" style="edgeStyle=orthogonalEdgeStyle;rounded=0;orthogonalLoop=1;jettySize=auto;html=1;entryX=0.5;entryY=1;entryDx=0;entryDy=0;" edge="1" parent="1" source="SxAL0rWBXSr9IIWfnXTL-12" target="SxAL0rWBXSr9IIWfnXTL-14">
          <mxGeometry relative="1" as="geometry" />
        </mxCell>
        <mxCell id="SxAL0rWBXSr9IIWfnXTL-12" value="&lt;font style=&quot;font-size: 20px;&quot;&gt;Backtesting&lt;/font&gt;" style="rounded=0;whiteSpace=wrap;html=1;fillColor=#fff2cc;strokeColor=#d6b656;" vertex="1" parent="1">
          <mxGeometry x="640" y="170" width="160" height="80" as="geometry" />
        </mxCell>
        <mxCell id="SxAL0rWBXSr9IIWfnXTL-13" style="edgeStyle=orthogonalEdgeStyle;rounded=0;orthogonalLoop=1;jettySize=auto;html=1;" edge="1" parent="1" source="SxAL0rWBXSr9IIWfnXTL-2">
          <mxGeometry relative="1" as="geometry">
            <mxPoint x="640" y="210" as="targetPoint" />
          </mxGeometry>
        </mxCell>
        <mxCell id="SxAL0rWBXSr9IIWfnXTL-14" value="&lt;font style=&quot;font-size: 20px;&quot;&gt;EMAIL&lt;/font&gt;" style="rounded=0;whiteSpace=wrap;html=1;fillColor=#f5f5f5;fontColor=#333333;strokeColor=#666666;" vertex="1" parent="1">
          <mxGeometry x="660" y="40" width="120" height="60" as="geometry" />
        </mxCell>
      </root>
    </mxGraphModel>
  </diagram>
</mxfile>
